<?xml version="1.0" encoding="UTF-8" standalone="no"?>
<!-- Created with Inkscape (http://www.inkscape.org/) -->

<svg
   xmlns:dc="http://purl.org/dc/elements/1.1/"
   xmlns:cc="http://creativecommons.org/ns#"
   xmlns:rdf="http://www.w3.org/1999/02/22-rdf-syntax-ns#"
   xmlns:svg="http://www.w3.org/2000/svg"
   xmlns="http://www.w3.org/2000/svg"
   xmlns:sodipodi="http://sodipodi.sourceforge.net/DTD/sodipodi-0.dtd"
   xmlns:inkscape="http://www.inkscape.org/namespaces/inkscape"
   id="svg3390"
   version="1.1"
   inkscape:version="0.91 r13725"
   width="300"
   height="255"
   viewBox="0 0 300 255"
   sodipodi:docname="hackster.svg">
  <metadata
     id="metadata3396">
    <rdf:RDF>
      <cc:Work
         rdf:about="">
        <dc:format>image/svg+xml</dc:format>
        <dc:type
           rdf:resource="http://purl.org/dc/dcmitype/StillImage" />
        <dc:title></dc:title>
      </cc:Work>
    </rdf:RDF>
  </metadata>
  <defs
     id="defs3394" />
  <sodipodi:namedview
     pagecolor="#ffffff"
     bordercolor="#666666"
     borderopacity="1"
     objecttolerance="10"
     gridtolerance="10"
     guidetolerance="10"
     inkscape:pageopacity="0"
     inkscape:pageshadow="2"
     inkscape:window-width="1440"
     inkscape:window-height="851"
     id="namedview3392"
     showgrid="false"
     inkscape:zoom="1.7306667"
     inkscape:cx="250"
     inkscape:cy="132.84067"
     inkscape:window-x="0"
     inkscape:window-y="1"
     inkscape:window-maximized="1"
     inkscape:current-layer="svg3390" />
  <path
     style="fill:#000000"
     d="m 64.101023,252.99461 c -2.43077,-2.44921 -2.23495,-83.4259 0.20984,-86.77294 1.61888,-2.21634 3.70677,-2.4619 24.11615,-2.83637 20.783997,-0.38135 22.558227,-0.23635 25.415167,2.07705 l 3.07135,2.48702 0,35.07573 c 0,33.45248 -0.11575,35.18539 -2.5,37.4454 -1.44141,1.36626 -10.43945,4.53581 -21.250007,7.48527 -23.58926,6.43591 -27.07597,7.04044 -29.0625,5.03884 z m 25.3125,-6.82793 c 20.073057,-5.54576 22.662967,-6.6131 24.192517,-9.97008 0.95439,-2.09464 1.43249,-13.55432 1.43249,-34.33515 0,-39.85418 2.46392,-36.49537 -26.379157,-35.96 -17.19507,0.31917 -21.44076,0.74921 -22.39955,2.26881 -1.71374,2.71615 -1.59611,80.37519 0.12437,82.09564 1.50232,1.50231 5.02232,0.87575 23.02937,-4.09922 z m 95.312507,-25.59655 c -1.82385,-1.0623 -2.1875,-3.12218 -2.1875,-12.39111 0,-15.33184 -0.58215,-15.01412 27.46564,-14.98962 12.05015,0.01 22.63635,0.48035 23.52488,1.04405 2.79504,1.77318 3.82019,7.97225 1.93802,11.7192 -1.84712,3.67716 -1.40598,3.51233 -30.95412,11.56573 -18.2046,4.96172 -16.86298,4.75479 -19.78692,3.05175 z m 25.3125,-7.47885 c 10.65625,-2.85474 20.35937,-6.06077 21.5625,-7.12447 2.52465,-2.2321 2.86734,-6.61671 0.6875,-8.79655 -1.91594,-1.91594 -41.299,-2.09692 -44.83218,-0.20602 -2.04981,1.09702 -2.41782,2.67618 -2.41782,10.375 0,8.8359 1.31065,12.38526 4.21483,11.41408 0.77558,-0.25936 10.12892,-2.80727 20.78517,-5.66203 z m -26,-28.92102 c -0.99614,-0.99614 -1.5,-6.4246 -1.5,-16.16071 0,-11.66127 -0.40187,-15.06259 -1.96429,-16.625 -1.72801,-1.72803 -8.78929,-1.96429 -58.70601,-1.96429 -54.819577,0 -56.785587,-0.0819 -58.035737,-2.41783 -0.71168,-1.3298 -1.29397,-10.02876 -1.29397,-19.33101 0,-15.44226 -0.21028,-17.02573 -2.41783,-18.20719 -1.4561,-0.77927 -13.33578,-1.29397 -29.86626,-1.29397 -23.8762703,0 -27.5471803,-0.25733 -28.2071703,-1.97724 -1.31811001,-3.43492 -0.83404,-5.3945 1.66267,-6.7307 1.33178,-0.71275 26.1986103,-7.75194 55.2596303,-15.64264 63.892077,-17.34808 58.568967,-17.7234 58.568967,4.12939 0,9.78315 0.50316,15.22435 1.5,16.22119 1.12184,1.12184 15.55802,1.5 57.26109,1.5 42.69891,0 56.23396,0.36602 57.77976,1.5625 1.62999,1.26165 2.12787,4.87186 2.5858,18.74994 0.36633,11.10176 1.11812,17.85135 2.1233,19.0625 1.29768,1.56361 6.16088,1.87506 29.2781,1.87506 19.89485,0 28.14546,0.42351 29.22195,1.5 1.94754,1.94754 1.9171,5.34936 -0.0625,6.98455 -2.09002,1.7264 -105.29962,30.15741 -109.75,30.23267 -1.06562,0.018 -2.6125,-0.64222 -3.4375,-1.46722 z m 26.625,-7.06597 c 102.81795,-28.03506 100.18195,-26.73187 55.9972,-27.68403 -16.81245,-0.3623 -29.51546,-1.1504 -30.2225,-1.875 -0.67084,-0.6875 -1.55893,-9.08841 -1.97353,-18.6687 -0.4146,-9.58027 -1.36772,-18.1584 -2.11804,-19.0625 -1.08993,-1.31328 -12.53453,-1.6438 -56.91837,-1.6438 -35.90442,0 -56.40931,-0.45769 -57.97194,-1.29398 -2.18993,-1.17202 -2.41782,-2.74808 -2.41782,-16.72195 0,-10.82703 -0.46596,-15.80931 -1.5625,-16.70671 -1.1067,-0.90572 -15.418857,2.49555 -49.062507,11.65968 -74.77482,20.36776 -73.6400523,19.63055 -31.65219,20.56296 21.27997,0.47255 28.64879,1.04345 30.211,2.34055 1.73725,1.44245 2.06619,4.43738 2.06619,18.8125 0,11.63096 0.47956,17.57651 1.5,18.59695 1.1218,1.1218 15.5493,1.5 57.221867,1.5 48.40956,0 56.08644,0.25535 58.5,1.94587 2.61432,1.83114 2.77814,2.85079 2.77814,17.29168 0,8.44017 0.415,15.76079 0.92224,16.26801 1.10987,1.10988 1.13758,1.10391 24.70276,-5.32153 z m -25.3125,-85.82511 c -2.80316,-1.99403 -2.8125,-2.11806 -2.8125,-37.336909 0,-35.029836 0.0244,-35.359104 2.8125,-37.974815 3.41967,-3.208215 43.87105,-14.523132 48.11389,-13.458247 1.81978,0.456737 2.86573,1.700092 2.94211,3.497367 0.0651,1.533776 0.14515,20.688628 0.17771,42.566335 0.053,35.590049 -0.16126,39.998449 -2.035,41.874999 -3.10746,3.11214 -44.99737,3.81991 -49.19871,0.83127 z m 46.63609,-2.38321 c 2.31523,-1.69298 2.42551,-3.60971 2.4067,-41.832209 -0.0131,-26.598649 -0.46621,-40.504426 -1.34861,-41.386822 -1.66185,-1.661852 -42.52198,9.16721 -45.80702,12.14012 -1.99547,1.805888 -2.19789,5.07651 -2.18052,35.234442 0.01,18.284059 0.4324,33.862549 0.9375,34.618829 1.64881,2.46878 4.4126,2.80127 24.11695,2.90124 14.94661,0.0759 20.01026,-0.31202 21.875,-1.6756 z M 65.038523,60.67026 c -4.6195,-4.6195 -2.27403,-12.081199 4.63771,-14.754009 8.64905,-3.34465 42.020547,-11.534886 44.191667,-10.845798 3.22697,1.024197 4.12032,5.259732 3.35764,15.919088 -0.47315,6.612849 -1.21055,9.289279 -2.89967,10.524389 -1.6798,1.22831 -8.01779,1.65633 -24.526257,1.65633 -20.59443,0 -22.44827,-0.18717 -24.76109,-2.5 z m 48.054127,-2.77813 c 2.3701,-3.383809 2.6244,-15.852259 0.38338,-18.797639 -1.43407,-1.884806 -2.69264,-1.748159 -15.312507,1.66255 -25.53901,6.90231 -30.5255,8.64165 -31.84548,11.10806 -1.74306,3.256939 -1.61446,4.541649 0.68477,6.840869 1.63047,1.63049 5.54821,1.96429 23.05411,1.96429 20.376627,0 21.155657,-0.094 23.035737,-2.77813 z"
     id="path3400"
     inkscape:connector-curvature="0" />
  <path
     style="fill:#000000"
     d="m 186.06071,182.38501 c -0.57811,-0.69658 -0.85672,-4.67927 -1.11296,-15.90963 l -0.3418,-14.98045 -1.51374,-1.51374 c -1.01667,-1.01667 -2.52744,-1.68819 -4.60074,-2.04499 -1.69785,-0.29219 -27.00841,-0.73615 -56.2457,-0.9866 -35.912947,-0.30763 -53.650807,-0.65885 -54.675557,-1.08262 -2.1043,-0.87021 -2.30745,-2.38192 -2.75489,-20.50021 -0.44657,-18.08297 -0.23084,-17.4704 -6.46342,-18.35266 -2.04058,-0.28885 -13.33071,-0.7919 -25.08919,-1.11788 -22.47585,-0.62311 -27.2818903,-0.92852 -28.6393303,-1.81995 -1.97162,-1.29476 2.58791,-3.1571 19.6655903,-8.03242 32.08721,-9.16023 81.285337,-22.06725 86.553497,-22.70712 2.09833,-0.25487 2.56621,-0.11427 3.15134,0.94693 0.44734,0.8113 0.8136,6.22061 1.04947,15.49943 0.44959,17.68682 0.13808,16.94447 7.34978,17.51525 2.81346,0.22268 28.11271,0.60109 56.22056,0.84092 34.37051,0.29326 51.60174,0.64081 52.62157,1.06135 1.36201,0.56163 1.58087,1.08545 2.14978,5.14524 0.34837,2.48597 0.91704,9.33023 1.26372,15.20947 0.60312,10.22818 1.36511,17.17712 1.94743,17.75943 0.6984,0.6984 11.0625,1.33691 30.39156,1.87235 20.09903,0.55677 26.38218,0.90832 28.11447,1.57307 4.65103,1.78477 -10.2977,6.46659 -85.31786,26.72087 -22.59756,6.10099 -22.71072,6.12438 -23.72358,4.90396 z"
     id="path3416"
     inkscape:connector-curvature="0" />
  <path
     style="fill:#000000"
     d="m 70.867603,60.20507 c -2.84991,-0.49844 -5.33994,-2.30348 -5.56193,-4.03187 -0.72952,-5.680109 2.05725,-7.104759 27.47168,-14.044099 19.902817,-5.4344 20.432667,-5.462614 21.629757,-1.15179 0.89591,3.22626 0.74797,11.07491 -0.27359,14.514879 -1.51097,5.088 -1.12615,4.99937 -22.196207,5.11227 -10.02527,0.0537 -19.50664,-0.12601 -21.06971,-0.39939 z"
     id="path3418"
     inkscape:connector-curvature="0" />
  <path
     style="fill:#000000"
     d="m 193.31665,90.28085 c -5.4461,-0.54763 -6.44937,-0.8942 -7.35401,-2.54042 -0.48353,-0.87991 -0.74356,-9.65553 -0.90969,-30.70051 -0.24462,-30.98759 0.0766,-37.139056 2.04203,-39.104478 1.4914,-1.491396 12.8606,-5.244099 25.86728,-8.538173 14.04336,-3.556624 19.17705,-4.482302 20.04496,-3.614391 1.08845,1.088449 1.71927,23.951261 1.44615,52.412662 -0.14029,14.61865 -0.49482,27.3594 -0.78786,28.31279 -0.36332,1.18209 -1.25949,2.09255 -2.81756,2.86251 -2.07098,1.02343 -3.71754,1.14058 -17.59679,1.25195 -8.42161,0.0676 -17.39214,-0.0863 -19.93451,-0.34194 z"
     id="path3420"
     inkscape:connector-curvature="0" />
  <path
     style="fill:#000000"
     d="m 66.172153,250.27621 c -1.35211,-2.18775 -1.66879,-72.51551 -0.36015,-79.98179 0.63657,-3.63189 1.31754,-3.78026 20.41539,-4.44809 18.147277,-0.6346 21.804207,-0.44083 24.679467,1.30772 3.77106,2.29332 3.80836,2.58651 3.99991,31.44407 0.17951,27.04383 -0.27859,36.31652 -1.91777,38.81822 -1.3011,1.98573 -5.16819,3.57834 -17.033677,7.01511 -20.45679,5.92519 -28.73005,7.54876 -29.78317,5.84476 z"
     id="path3422"
     inkscape:connector-curvature="0" />
  <path
     style="fill:#000000"
     d="m 186.25751,217.2383 c -0.84053,-1.54477 -1.02253,-3.33531 -1.02601,-10.0937 -0.005,-10.54707 -0.0659,-10.46702 8.44631,-11.17191 11.37393,-0.94186 34.82892,-0.38628 38.16742,0.90407 2.60238,1.00584 2.37723,7.47668 -0.32168,9.24507 -0.73031,0.47852 -3.64528,1.65721 -6.4777,2.61931 -5.36226,1.82142 -35.95538,10.37505 -37.10765,10.37505 -0.36239,0 -1.1187,-0.84505 -1.68069,-1.87789 z"
     id="path3424"
     inkscape:connector-curvature="0" />
</svg>
